solid value-band-island
  facet normal 0 0 1
    outer loop
      vertex -1 -1 0
      vertex 1 -1 0
      vertex 1 1 0
    endloop
  endfacet
  facet normal 0 0 1
    outer loop
      vertex -1 -1 0
      vertex 1 1 0
      vertex -1 1 0
    endloop
  endfacet
  facet normal 0 -0.49 0.87
    outer loop
      vertex 0.32 0.24 0.04
      vertex 0.48 0.24 0.04
      vertex 0.48 0.40 0.13
    endloop
  endfacet
  facet normal 0 -0.49 0.87
    outer loop
      vertex 0.32 0.24 0.04
      vertex 0.48 0.40 0.13
      vertex 0.32 0.40 0.13
    endloop
  endfacet
endsolid value-band-island
